<?xml version="1.0" encoding="UTF-8"?>
<svg id="Layer_1" xmlns="http://www.w3.org/2000/svg" version="1.1" viewBox="0 0 256 256">
  <!-- Generator: Adobe Illustrator 29.6.1, SVG Export Plug-In . SVG Version: 2.1.1 Build 9)  -->
  <defs>
    <style>
      .st0 {
        fill: #333;
      }

      .st1 {
        fill: #191919;
      }
    </style>
  </defs>
  <path class="st1" d="M83.7,249.5c-4.1,0-7.6-1.9-9.4-5-.9-1.5-2-4.4-.1-7.9l41.7-76.1c2.7-5,2.6-10.9-.3-15.8-3.1-5.3-9-8.5-15.4-8.5h-32.8c-5.8,0-10.6-4.1-10.6-9.1V15.6c0-5,4.7-9.1,10.6-9.1h120.3c5.8,0,10.6,4.1,10.6,9.1v113.6c0,7.5-1.9,15.1-5.6,21.9l-49.3,91c-2.4,4.5-7.7,7.4-13.4,7.4h-46.2Z"/>
  <path class="st0" d="M187.7,13c2.5,0,4.1,1.5,4.1,2.6v113.6c0,6.5-1.7,13-4.8,18.8l-49.3,91c-1.3,2.4-4.4,4-7.7,4h-46.2c-2,0-3.3-.9-3.8-1.8-.4-.7-.2-1.1,0-1.5l41.7-76.1c3.8-7,3.7-15.3-.4-22.2-4.3-7.2-12.3-11.7-21-11.7h-32.8c-2.5,0-4.1-1.5-4.1-2.6V15.6c0-1,1.6-2.6,4.1-2.6h120.3M187.7,0h-120.3c-9.4,0-17.1,7-17.1,15.6v111.6c0,8.6,7.6,15.6,17.1,15.6h32.8c8.3,0,13.6,7.9,10,14.7l-41.7,76.1c-5.7,10.3,2.6,22.5,15.3,22.5h46.2c8.1,0,15.5-4.2,19.1-10.8l49.3-91c4.2-7.8,6.4-16.3,6.4-25V15.6c0-8.6-7.6-15.6-17.1-15.6h0Z"/>
</svg>